<?xml version="1.0" standalone="no"?>
<!DOCTYPE svg PUBLIC "-//W3C//DTD SVG 20010904//EN"
 "http://www.w3.org/TR/2001/REC-SVG-20010904/DTD/svg10.dtd">
<svg version="1.0" xmlns="http://www.w3.org/2000/svg"
 width="80.000000pt" height="80.000000pt" viewBox="0 0 80.000000 80.000000"
 preserveAspectRatio="xMidYMid meet">
<metadata>
Created by potrace 1.14, written by Peter Selinger 2001-2017
</metadata>
<g transform="translate(0.000000,80.000000) scale(0.100000,-0.100000)"
fill="#000000" stroke="none">
<path d="M86 770 c-81 -52 -85 -67 -86 -363 0 -212 2 -263 15 -294 18 -43 52
-83 72 -83 7 0 13 -5 13 -11 0 -6 7 -9 15 -5 8 3 15 1 15 -4 0 -14 508 -13
551 1 19 6 47 24 62 40 54 56 57 76 57 359 0 167 -4 260 -10 260 -6 0 -9 3 -9
8 3 18 -3 31 -28 60 -52 59 -76 63 -362 62 l-259 -1 -46 -29z"/>
</g>
</svg>
