<svg viewBox="0 0 48 48" fill="none" xmlns="http://www.w3.org/2000/svg">
<g clip-path="url(#clip0_2905_1274)">
<rect width="48" height="48" rx="24" fill="#2C5282"/>
<path d="M38.192 24.36C38.4987 24.36 38.7187 24.4267 38.852 24.56C38.9987 24.6933 39.072 24.8667 39.072 25.08C39.072 25.4267 38.9654 25.7333 38.752 26C38.552 26.2667 38.232 26.4067 37.792 26.42C36.7387 26.4333 35.792 26.3533 34.952 26.18C34.0187 28.1667 32.892 29.82 31.572 31.14C30.2654 32.4467 28.972 33.1 27.692 33.1C26.5187 33.1 25.6387 32.48 25.052 31.24C24.4654 29.9867 24.132 28.3133 24.052 26.22C23.252 28.54 22.3454 30.2667 21.332 31.4C20.332 32.5333 19.2654 33.1 18.132 33.1C16.852 33.1 15.8854 32.3067 15.232 30.72C14.5787 29.12 14.252 26.9733 14.252 24.28C14.252 22.32 14.4254 20.1667 14.772 17.82C14.8654 17.1533 15.032 16.6933 15.272 16.44C15.5254 16.1733 15.9187 16.04 16.452 16.04C16.852 16.04 17.1587 16.1267 17.372 16.3C17.5987 16.4733 17.712 16.7933 17.712 17.26C17.712 17.3533 17.6987 17.5333 17.672 17.8C17.272 20.5333 17.072 22.86 17.072 24.78C17.072 26.5667 17.2254 27.9467 17.532 28.92C17.8387 29.8933 18.252 30.38 18.772 30.38C19.2387 30.38 19.7987 29.8933 20.452 28.92C21.1187 27.9333 21.7787 26.48 22.432 24.56C23.0854 22.6267 23.6387 20.3267 24.092 17.66C24.1987 17.0467 24.392 16.6267 24.672 16.4C24.9654 16.16 25.3587 16.04 25.852 16.04C26.2654 16.04 26.5654 16.1333 26.752 16.32C26.952 16.4933 27.052 16.76 27.052 17.12C27.052 17.3333 27.0387 17.5 27.012 17.62C26.6387 19.7933 26.452 21.9667 26.452 24.14C26.452 25.62 26.4987 26.8 26.592 27.68C26.6987 28.56 26.892 29.2333 27.172 29.7C27.4654 30.1533 27.8854 30.38 28.432 30.38C29.072 30.38 29.7854 29.9 30.572 28.94C31.3587 27.9667 32.0787 26.76 32.732 25.32C31.9187 24.8133 31.3054 24.16 30.892 23.36C30.4787 22.5467 30.272 21.6133 30.272 20.56C30.272 19.5067 30.432 18.62 30.752 17.9C31.0854 17.1667 31.532 16.62 32.092 16.26C32.6654 15.9 33.2987 15.72 33.992 15.72C34.8454 15.72 35.5187 16.0267 36.012 16.64C36.5187 17.2533 36.772 18.0933 36.772 19.16C36.772 20.6667 36.4454 22.34 35.792 24.18C36.472 24.3 37.272 24.36 38.192 24.36ZM32.292 20.42C32.292 21.7267 32.712 22.6933 33.552 23.32C34.072 21.8267 34.332 20.5933 34.332 19.62C34.332 19.06 34.2587 18.6533 34.112 18.4C33.9654 18.1333 33.7654 18 33.512 18C33.152 18 32.8587 18.2133 32.632 18.64C32.4054 19.0533 32.292 19.6467 32.292 20.42Z" fill="white"/>
</g>
<defs>
<clipPath id="clip0_2905_1274">
<rect width="48" height="48" rx="24" fill="white"/>
</clipPath>
</defs>
</svg>
