<svg viewBox="0 0 213 36" fill="none" xmlns="http://www.w3.org/2000/svg">
<path d="M48.72 17.72C49.3333 17.72 49.7733 17.8533 50.04 18.12C50.3333 18.3867 50.48 18.7333 50.48 19.16C50.48 19.8533 50.2667 20.4667 49.84 21C49.44 21.5333 48.8 21.8133 47.92 21.84C45.8133 21.8667 43.92 21.7067 42.24 21.36C40.3733 25.3333 38.12 28.64 35.48 31.28C32.8667 33.8933 30.28 35.2 27.72 35.2C25.3733 35.2 23.6133 33.96 22.44 31.48C21.2667 28.9733 20.6 25.6267 20.44 21.44C18.84 26.08 17.0267 29.5333 15 31.8C13 34.0667 10.8667 35.2 8.6 35.2C6.04 35.2 4.10667 33.6133 2.8 30.44C1.49333 27.24 0.84 22.9467 0.84 17.56C0.84 13.64 1.18667 9.33333 1.88 4.64C2.06667 3.30667 2.4 2.38667 2.88 1.88C3.38667 1.34666 4.17333 1.08 5.24 1.08C6.04 1.08 6.65333 1.25333 7.08 1.6C7.53333 1.94667 7.76 2.58667 7.76 3.52C7.76 3.70667 7.73333 4.06667 7.68 4.6C6.88 10.0667 6.48 14.72 6.48 18.56C6.48 22.1333 6.78667 24.8933 7.4 26.84C8.01333 28.7867 8.84 29.76 9.88 29.76C10.8133 29.76 11.9333 28.7867 13.24 26.84C14.5733 24.8667 15.8933 21.96 17.2 18.12C18.5067 14.2533 19.6133 9.65333 20.52 4.32C20.7333 3.09333 21.12 2.25333 21.68 1.8C22.2667 1.32 23.0533 1.08 24.04 1.08C24.8667 1.08 25.4667 1.26666 25.84 1.64C26.24 1.98666 26.44 2.52 26.44 3.24C26.44 3.66666 26.4133 4 26.36 4.24C25.6133 8.58667 25.24 12.9333 25.24 17.28C25.24 20.24 25.3333 22.6 25.52 24.36C25.7333 26.12 26.12 27.4667 26.68 28.4C27.2667 29.3067 28.1067 29.76 29.2 29.76C30.48 29.76 31.9067 28.8 33.48 26.88C35.0533 24.9333 36.4933 22.52 37.8 19.64C36.1733 18.6267 34.9467 17.32 34.12 15.72C33.2933 14.0933 32.88 12.2267 32.88 10.12C32.88 8.01333 33.2 6.24 33.84 4.8C34.5067 3.33333 35.4 2.24 36.52 1.52C37.6667 0.799999 38.9333 0.439999 40.32 0.439999C42.0267 0.439999 43.3733 1.05333 44.36 2.28C45.3733 3.50667 45.88 5.18667 45.88 7.32C45.88 10.3333 45.2267 13.68 43.92 17.36C45.28 17.6 46.88 17.72 48.72 17.72ZM36.92 9.84C36.92 12.4533 37.76 14.3867 39.44 15.64C40.48 12.6533 41 10.1867 41 8.24C41 7.12 40.8533 6.30667 40.56 5.8C40.2667 5.26666 39.8667 5 39.36 5C38.64 5 38.0533 5.42666 37.6 6.28C37.1467 7.10666 36.92 8.29333 36.92 9.84ZM64.4319 1.32C65.1252 1.32 65.7119 1.49333 66.1919 1.84C66.6719 2.16 66.9119 2.56 66.9119 3.04C66.9119 3.89333 66.6452 4.58667 66.1119 5.12C65.5785 5.62666 64.8185 5.88 63.8319 5.88C62.2852 5.88 61.1119 5.89333 60.3119 5.92C60.2585 6.24 60.0185 7.68 59.5919 10.24C59.1119 13.0933 58.8185 14.84 58.7119 15.48L57.8719 20.72C57.2852 24.64 56.8185 27.92 56.4719 30.56C57.0319 30.5333 57.7919 30.52 58.7519 30.52C60.1652 30.52 61.1252 30.7067 61.6319 31.08C62.1385 31.4533 62.3919 32.0133 62.3919 32.76C62.3919 33.4533 62.1119 34.04 61.5519 34.52C61.0185 35 60.2585 35.24 59.2719 35.24C58.6052 35.24 57.5519 35.2133 56.1119 35.16C54.7785 35.1067 53.8985 35.08 53.4719 35.08C51.7919 35.08 49.9519 35.2267 47.9519 35.52C47.0719 35.6533 46.4452 35.72 46.0719 35.72C45.4852 35.72 44.9919 35.56 44.5919 35.24C44.1919 34.92 43.9919 34.4533 43.9919 33.84C43.9919 32.88 44.4185 32.1333 45.2719 31.6C46.1252 31.0667 47.3252 30.7867 48.8719 30.76L50.7519 30.72L50.8719 29.84C51.5119 25.5733 51.9785 22.56 52.2719 20.8L53.1519 15.56C53.6852 12.4667 54.1652 9.28 54.5919 6L51.2319 6.04C50.2719 6.04 49.6052 5.89333 49.2319 5.6C48.8852 5.28 48.7119 4.84 48.7119 4.28C48.7119 2.46667 50.0185 1.49333 52.6319 1.36C53.8585 1.30666 55.3519 1.28 57.1119 1.28L64.4319 1.32ZM77.5566 35.32C74.0099 35.32 71.1699 34.6533 69.0366 33.32C66.9032 31.96 65.8366 29.8933 65.8366 27.12C65.8366 25.6533 66.0899 24.5333 66.5966 23.76C67.1032 22.9867 67.8499 22.6 68.8366 22.6C69.5566 22.6 70.1432 22.7867 70.5966 23.16C71.0499 23.5333 71.2766 24.0133 71.2766 24.6C71.2766 25.1333 71.2366 25.6 71.1566 26C71.1566 26.1067 71.1299 26.2933 71.0766 26.56C71.0499 26.8267 71.0366 27.1067 71.0366 27.4C71.0366 28.6 71.6366 29.4933 72.8366 30.08C74.0632 30.6667 75.7699 30.96 77.9566 30.96C80.2232 30.96 81.9966 30.56 83.2766 29.76C84.5566 28.9333 85.1966 27.7867 85.1966 26.32C85.1966 25.4133 84.9032 24.64 84.3166 24C83.7299 23.3333 82.9966 22.7867 82.1166 22.36C81.2366 21.9067 79.9966 21.36 78.3966 20.72C76.3432 19.92 74.6632 19.16 73.3566 18.44C72.0766 17.72 70.9699 16.7467 70.0366 15.52C69.1299 14.2667 68.6766 12.72 68.6766 10.88C68.6766 8.96 69.1832 7.25333 70.1966 5.76C71.2366 4.26666 72.7166 3.10666 74.6366 2.28C76.5832 1.45333 78.8632 1.04 81.4766 1.04C83.4232 1.04 85.2099 1.33333 86.8366 1.92C88.4632 2.48 89.7566 3.34666 90.7166 4.52C91.7032 5.69333 92.1966 7.13333 92.1966 8.84C92.1966 10.52 91.9432 11.7867 91.4366 12.64C90.9299 13.4933 90.1832 13.92 89.1966 13.92C88.5032 13.92 87.9166 13.7067 87.4366 13.28C86.9832 12.8533 86.7566 12.3467 86.7566 11.76C86.7566 11.2533 86.7966 10.7867 86.8766 10.36C86.9566 9.56 86.9966 9.05333 86.9966 8.84C86.9966 7.72 86.4499 6.86666 85.3566 6.28C84.2632 5.69333 82.9032 5.4 81.2766 5.4C78.9832 5.4 77.2232 5.82667 75.9966 6.68C74.7966 7.50667 74.1966 8.68 74.1966 10.2C74.1966 11.2133 74.5032 12.08 75.1166 12.8C75.7566 13.52 76.5432 14.12 77.4766 14.6C78.4099 15.08 79.7166 15.6533 81.3966 16.32C83.4232 17.1467 85.0499 17.8933 86.2766 18.56C87.5032 19.2267 88.5432 20.1333 89.3966 21.28C90.2766 22.4267 90.7166 23.84 90.7166 25.52C90.7166 28.6667 89.5166 31.0933 87.1166 32.8C84.7432 34.48 81.5566 35.32 77.5566 35.32ZM104.531 35.2C102.984 35.2 101.238 35.0667 99.2909 34.8C98.2243 34.6667 97.4909 34.3867 97.0909 33.96C96.6909 33.5333 96.5176 32.84 96.5709 31.88C96.7576 29.24 97.1976 25.9867 97.8909 22.12C98.5843 18.2267 99.4243 14.48 100.411 10.88C100.598 10.2133 100.971 9.74667 101.531 9.48C102.091 9.21333 102.824 9.08 103.731 9.08C105.358 9.08 106.171 9.53333 106.171 10.44C106.171 10.8133 106.091 11.24 105.931 11.72C105.238 13.8533 104.544 16.72 103.851 20.32C103.158 23.8933 102.664 27.3067 102.371 30.56C103.171 30.64 104.078 30.68 105.091 30.68C109.758 30.68 113.238 29.2667 115.531 26.44C117.851 23.6133 119.011 19.84 119.011 15.12C119.011 11.9467 118.104 9.49333 116.291 7.76C114.478 6.02666 111.918 5.16 108.611 5.16C106.478 5.16 104.358 5.49333 102.251 6.16C100.171 6.82667 98.2909 7.70667 96.6109 8.8C96.2643 9.04 95.8909 9.16 95.4909 9.16C95.0376 9.16 94.6776 8.97333 94.4109 8.6C94.1443 8.2 94.0109 7.72 94.0109 7.16C94.0109 6.52 94.1176 6 94.3309 5.6C94.5443 5.17333 94.9043 4.78666 95.4109 4.44C97.2509 3.18666 99.4109 2.24 101.891 1.6C104.371 0.933332 106.758 0.599999 109.051 0.599999C112.304 0.599999 115.118 1.17333 117.491 2.32C119.864 3.44 121.691 5.09333 122.971 7.28C124.251 9.46667 124.891 12.1067 124.891 15.2C124.891 19.2267 124.091 22.7467 122.491 25.76C120.891 28.7467 118.558 31.0667 115.491 32.72C112.424 34.3733 108.771 35.2 104.531 35.2ZM140.848 35.2C138.475 35.2 136.328 34.6667 134.408 33.6C132.515 32.5333 131.008 30.9733 129.888 28.92C128.768 26.84 128.208 24.36 128.208 21.48C128.208 17.4267 128.942 13.8533 130.408 10.76C131.902 7.66666 133.915 5.28 136.448 3.6C139.008 1.92 141.835 1.08 144.928 1.08C147.302 1.08 149.435 1.61333 151.328 2.68C153.248 3.74667 154.768 5.32 155.888 7.4C157.008 9.45333 157.568 11.92 157.568 14.8C157.568 18.8533 156.822 22.4267 155.328 25.52C153.862 28.6133 151.848 31 149.288 32.68C146.755 34.36 143.942 35.2 140.848 35.2ZM141.248 30.48C143.328 30.48 145.155 29.84 146.728 28.56C148.328 27.28 149.555 25.5067 150.408 23.24C151.262 20.9467 151.688 18.36 151.688 15.48C151.688 12.3067 151.022 9.90666 149.688 8.28C148.355 6.62667 146.635 5.8 144.528 5.8C142.475 5.8 140.662 6.44 139.088 7.72C137.515 8.97333 136.288 10.7467 135.408 13.04C134.528 15.3067 134.088 17.8933 134.088 20.8C134.088 23.9733 134.755 26.3867 136.088 28.04C137.422 29.6667 139.142 30.48 141.248 30.48ZM167.585 35.2C166.598 35.2 165.891 34.9867 165.465 34.56C165.038 34.1067 164.825 33.2667 164.825 32.04C164.825 31.2133 164.905 30.16 165.065 28.88C165.251 27.5733 165.545 25.7867 165.945 23.52C166.638 19.3333 167.185 15.7067 167.585 12.64C167.825 10.72 167.945 9.12 167.945 7.84C167.945 6.64 167.505 6.04 166.625 6.04C165.931 6.04 165.091 6.4 164.105 7.12C163.145 7.81333 162.078 8.93333 160.905 10.48C160.531 10.9867 160.118 11.24 159.665 11.24C159.291 11.24 158.958 11.0667 158.665 10.72C158.398 10.3467 158.265 9.93333 158.265 9.48C158.265 9.05333 158.345 8.62667 158.505 8.2C158.691 7.74667 158.985 7.24 159.385 6.68C160.665 4.89333 162.091 3.52 163.665 2.56C165.238 1.57333 166.811 1.08 168.385 1.08C169.851 1.08 170.971 1.54667 171.745 2.48C172.545 3.41333 172.945 4.77333 172.945 6.56C172.945 7.28 172.878 8.13333 172.745 9.12C172.611 10.08 172.491 10.8667 172.385 11.48C172.278 12.0933 172.198 12.52 172.145 12.76C173.665 8.41333 175.371 5.38666 177.265 3.68C179.158 1.94666 181.238 1.08 183.505 1.08C185.238 1.08 186.598 1.69333 187.585 2.92C188.598 4.14666 189.105 5.88 189.105 8.12C189.105 9 188.985 10.0933 188.745 11.4C190.078 7.72 191.638 5.08 193.425 3.48C195.211 1.88 197.265 1.08 199.585 1.08C201.451 1.08 202.878 1.68 203.865 2.88C204.878 4.08 205.385 5.76 205.385 7.92C205.385 9.09333 205.211 10.52 204.865 12.2L202.425 23.64C202.158 24.9733 202.025 26.12 202.025 27.08C202.025 28.2 202.278 29.04 202.785 29.6C203.318 30.16 204.051 30.44 204.985 30.44C205.865 30.44 206.718 30.1467 207.545 29.56C208.398 28.9733 209.398 28 210.545 26.64C210.865 26.2667 211.225 26.08 211.625 26.08C211.971 26.08 212.238 26.24 212.425 26.56C212.638 26.88 212.745 27.32 212.745 27.88C212.745 28.92 212.491 29.7467 211.985 30.36C210.598 32.04 209.225 33.2667 207.865 34.04C206.505 34.8133 205.078 35.2 203.585 35.2C201.318 35.2 199.545 34.5333 198.265 33.2C196.985 31.84 196.345 30.0267 196.345 27.76C196.345 26.1867 196.665 23.9067 197.305 20.92L198.905 13.6C198.958 13.36 199.051 12.9333 199.185 12.32C199.318 11.7067 199.425 11.1333 199.505 10.6C199.585 10.04 199.625 9.49333 199.625 8.96C199.625 8.02667 199.438 7.33333 199.065 6.88C198.718 6.4 198.211 6.16 197.545 6.16C196.291 6.16 194.971 6.97333 193.585 8.6C192.225 10.2 190.918 12.8667 189.665 16.6C188.438 20.3333 187.438 25.1867 186.665 31.16C186.478 32.76 186.145 33.84 185.665 34.4C185.211 34.9333 184.465 35.2 183.425 35.2C182.518 35.2 181.851 34.9867 181.425 34.56C181.025 34.1333 180.825 33.3333 180.825 32.16C180.825 31.0667 180.971 29.64 181.265 27.88C181.558 26.0933 181.931 24 182.385 21.6C183.611 15.1467 184.225 10.9867 184.225 9.12C184.225 8.10666 184.025 7.36 183.625 6.88C183.251 6.4 182.678 6.16 181.905 6.16C180.598 6.16 179.251 6.90667 177.865 8.4C176.478 9.86667 175.118 12.4933 173.785 16.28C172.478 20.04 171.385 25.1333 170.505 31.56C170.318 32.92 170.038 33.8667 169.665 34.4C169.318 34.9333 168.625 35.2 167.585 35.2Z" fill="#F7FAFC"/>
</svg>
